<?xml version="1.0" encoding="utf-8"?>
<!-- Generator: Adobe Illustrator 17.0.0, SVG Export Plug-In . SVG Version: 6.00 Build 0)  -->
<!DOCTYPE svg PUBLIC "-//W3C//DTD SVG 1.1//EN" "http://www.w3.org/Graphics/SVG/1.1/DTD/svg11.dtd">
<svg version="1.1" id="Calque_1" xmlns="http://www.w3.org/2000/svg" xmlns:xlink="http://www.w3.org/1999/xlink" x="0px" y="0px"
	 width="595.28px" height="841.89px" viewBox="0 0 595.28 841.89" enable-background="new 0 0 595.28 841.89" xml:space="preserve">
<path fill="none" stroke="#C9C9C9" stroke-width="50" stroke-miterlimit="10" d="M381,292.89c0.285-119-11-115.029-65-115.014
	c-48,1-111,1.014-136,1.014s-20.706,0-50,0c-41,0-73,23-73,103s0,283,0,310s27,70,79,70s151,0,184,0s66.565-36,66.283-79
	c0.002-21,0.002-37,0.002-37"/>
<line fill="none" stroke="#C9C9C9" stroke-width="50" stroke-miterlimit="10" x1="248" y1="421.129" x2="543" y2="421.129"/>
<polyline fill="none" stroke="#C9C9C9" stroke-width="50" stroke-miterlimit="10" points="474,500.89 536,420.89 474,340.89 "/>
</svg>
